PathFileType	4	(X/Y/Z)	C:/Users/beibeiliu/ov580/test_trc/User3\sequence.35_training_dense_right.trc
DataRate	CameraRate	NumFrames	NumMarkers	Units	OrigDataRate	OrigDataStartFrame	OrigNumFrames
120	120	16	19	mm	120	134	267
Frame#	Time	ThumbCMC			ThumbMCP			ThumbIP			ThumbTip			IndexMCP			IndexPIP			IndexTip			MiddleMCP			MiddlePIP			MiddleTip			RingMCP			RingPIP			RingTip			PinkyMCP			PinkyPIP			PinkyTip			BackHand1			BackHand2			BackHand3	
		X0	Y0	Z0	X1	Y1	Z1	X2	Y2	Z2	X3	Y3	Z3	X4	Y4	Z4	X5	Y5	Z5	X6	Y6	Z6	X7	Y7	Z7	X8	Y8	Z8	X9	Y9	Z9	X10	Y10	Z10	X11	Y11	Z11	X12	Y12	Z12	X13	Y13	Z13	X14	Y14	Z14	X15	Y15	Z15	X16	Y16	Z16	X17	Y17	Z17	X18	Y18	Z18	
133	1.10833	110.213	-19.0897	56.1757	90.497	-28.1202	30.1179	72.5893	-30.3332	11.2378	58.715	-36.7163	-7.95153	123.438	-27.3305	-23.9772	113.271	-37.1582	-48.8902	101.116	-54.9098	-69.317	129.597	-54.8065	-26.5154	104.053	-69.3066	-37.0318	81.8553	-90.6978	-12.5914	139.861	-70.323	-16.7108	117.7	-90.5187	-23.0228	97.6985	-98.8108	2.11994	152.462	-85.2753	-5.67319	127.636	-101.127	-11.1606	109.904	-97.8952	5.45205	165.849	-45.6335	26.6542	171.465	-40.4549	54.1519	146.699	-17.5878	41.4315	
134	1.11667	112.209	-23.7807	51.2582	91.3814	-29.9124	28.3659	69.0143	-28.5459	3.55323	58.5577	-35.1144	-16.7909	129.648	-26.7525	-25.9409	120.034	-30.4298	-52.7895	109.549	-47.2605	-76.9885	133.739	-48.4432	-32.3663	111.901	-71.7697	-44.3815	89.9398	-93.4034	-16.3923	144.399	-65.0242	-23.0629	125.237	-86.9854	-31.0471	100.701	-96.0681	-4.65396	158.818	-78.3295	-7.8378	135.223	-95.8841	-18.6616	115.435	-99.1872	-1.71032	167.926	-39.4959	26.2267	171.454	-40.0057	57.1522	149.056	-18.656	40.4716	
135	1.125	109.007	-24.945	42.7616	88.0475	-29.7346	20.5243	70.6885	-30.7382	-5.34551	63.8739	-38.0489	-25.3892	130.882	-21.9089	-29.9148	130.627	-29.8256	-58.4908	123.651	-43.2725	-82.437	141.58	-48.6083	-39.1737	122.418	-70.7539	-52.4566	101.254	-91.8875	-30.145	150.824	-63.7793	-31.0259	132.082	-87.2266	-37.4735	114.719	-98.5498	-15.6827	164.642	-75.4591	-14.1492	145.532	-96.4983	-25.4934	124.205	-101.987	-8.16726	169.294	-39.5671	19.2878	172.091	-36.4763	53.3242	145.359	-18.9048	32.4985	
136	1.13333	107.127	-30.7551	37.1487	93.2982	-36.9193	9.18204	78.7103	-38.8766	-15.6791	70.9648	-43.6168	-38.1215	138.679	-24.2159	-34.7608	133.682	-25.4787	-65.2725	130.043	-44.5371	-90.6372	148.106	-45.9853	-44.1819	130.94	-66.4088	-60.7377	113.037	-92.0607	-36.9628	161.398	-61.0644	-33.6345	145.534	-84.5388	-44.9716	123.651	-99.1298	-21.746	172.801	-71.4625	-20.9258	156.05	-93.7686	-32.143	132.806	-99.0054	-16.4844	172.19	-36.5773	15.3475	172.162	-40.0079	49.7943	145.743	-19	28.3324	
137	1.14167	104.877	-37.2527	27.7077	93.2911	-42.6539	-2.27954	81.0182	-43.8658	-30.3805	79.7157	-52.9939	-49.4353	139.766	-25.4815	-46.1229	136.083	-31.8669	-73.7682	129.79	-50.3113	-95.5272	151.101	-46.3557	-50.1777	133.321	-73.2263	-66.218	117.921	-93.1461	-39.186	165.587	-60.9754	-42.6856	148.189	-87.1064	-51.5473	128.886	-97.1755	-25.8337	176.433	-70.8014	-29.6118	163.297	-91.9219	-39.6327	142.595	-101.214	-17.3894	174.654	-37.8044	13.0111	167.681	-35.9642	42.3448	140.212	-20.945	21.7445	
138	1.15	103.69	-43.8116	19.4737	92.4383	-50.0955	-9.13393	84.7489	-54.2766	-39.1732	84.8178	-63.0286	-62.5449	138.663	-32.712	-53.3107	132.745	-44.7946	-82.6258	125.964	-69.513	-94.4712	151.151	-50.7492	-57.2413	135.761	-80.3383	-67.4694	125.861	-98.189	-39.8693	165.893	-62.521	-44.2554	153.657	-92.6206	-53.0259	132.924	-98.3473	-27.1265	178.902	-71.732	-34.0302	165.516	-93.4948	-43.8639	145.283	-101.803	-20.6351	170.387	-36.4433	5.26199	168.561	-39.8093	36.7638	138.348	-26.8385	18.9259	
139	1.15833	104.655	-52.2766	16.3325	95.8205	-59.709	-14.7686	87.3355	-66.605	-43.9143	93.8381	-76.3957	-63.3168	128.722	-41.2563	-59.5011	123.166	-62.4076	-84.4496	114.79	-88.339	-85.8547	146.638	-58.2378	-60.2026	134.086	-90.826	-66.6748	125.665	-103.605	-34.1008	160.531	-68.115	-48.0416	152.252	-97.4152	-53.7021	134.951	-100.648	-21.6229	178.784	-77.9089	-36.8351	165.788	-98.1586	-45.4963	145.905	-103.529	-19.5075	165.669	-40.2407	0.444519	164.476	-40.7366	33.0295	135.739	-30.7613	13.358	
140	1.16667	101.347	-54.6112	11.7342	86.5735	-65.7571	-15.3092	83.1362	-75.7614	-41.0831	90.2375	-86.0602	-64.3952	121.844	-52.1101	-59.9064	116.848	-80.267	-81.5355	102.417	-106.016	-73.2776	139.775	-66.606	-59.9633	125.469	-100.361	-64.5969	120.301	-109.209	-27.816	158.01	-79.3891	-51.2329	142.353	-106.515	-51.0544	131.937	-103.377	-16.3007	172.03	-82.3454	-35.9644	159.053	-105.539	-44.8126	139.786	-104.669	-15.3251	164.63	-47.3532	-0.669924	160.609	-44.4403	26.3548	128.428	-32.9445	7.83633	
141	1.175	92.4938	-53.1458	15.03	82.7849	-67.4266	-14.9909	72.3514	-77.0468	-41.4909	79.1095	-91.5262	-59.2253	110.317	-61.9343	-63.9322	104.17	-89.5363	-76.4562	91.5409	-113.524	-59.9523	131.226	-77.3332	-59.1792	111.547	-106.579	-59.9393	106.779	-110.396	-22.0305	141.266	-87.5528	-52.0777	129.73	-114.463	-42.8335	119.185	-106.5	-14.5691	163.107	-92.5901	-36.9072	143.398	-114.978	-37.6194	133.748	-109.738	-11.0187	155.306	-48.6601	-8.59601	159.353	-45.2108	24.7441	128.782	-35.9903	4.48462	
142	1.18333	88.1527	-47.5622	12.3913	70.2494	-60.8339	-8.35506	59.2986	-73.08	-34.3954	60.424	-89.4277	-49.9576	100.487	-66.2888	-59.7538	83.7414	-91.4466	-69.3196	69.2571	-111.933	-49.6172	114.557	-84.1352	-58.4813	97.263	-110.168	-53.3389	91.7124	-105.958	-11.1281	126.496	-96.785	-49.1979	109.522	-116.284	-39.5207	105.189	-101.725	-4.57235	144.649	-101.752	-36.57	124.164	-119.087	-33.0948	116.333	-110.475	-1.69516	148.853	-54.0284	-7.44387	156.889	-48.7413	17.2145	122.672	-32.8021	1.18955	
143	1.19167	88.1964	-40.2546	15.2293	64.6547	-50.7375	-0.64026	45.8604	-62.6184	-25.1256	42.1403	-80.4008	-43.4168	87.3012	-62.0852	-53.5967	62.7518	-87.5001	-60.676	50.233	-104.36	-38.7567	99.5107	-83.3378	-52.5427	75.3946	-106.461	-45.0857	70.7643	-98.6042	-3.94058	110.902	-95.3837	-41.5275	88.2523	-115.61	-24.4834	86.5493	-98.7487	2.10388	126.569	-106.695	-29.731	102.806	-120.457	-21.9542	93.4894	-102.309	2.70105	142.065	-58.4648	-13.5398	150.006	-51.5709	21.4738	121.033	-35.4735	1.53846	
144	1.2	89.6438	-28.6608	22.816	59.785	-36.0504	4.52339	40.3997	-46.5208	-15.1774	27.5009	-62.5786	-29.4257	75.2244	-57.2109	-51.1711	48.3897	-76.5205	-53.6439	27.6552	-82.533	-34.1884	82.8301	-76.1659	-46.2583	53.2087	-93.2632	-35.9468	48.7819	-86.144	0.953664	89.2858	-95.1504	-35.927	67.3877	-106.061	-20.9864	69.2028	-88.2804	11.5319	103.138	-109.621	-23.1988	74.8942	-110.678	-11.0829	74.6688	-94.5207	9.36444	132.247	-66.6209	-10.764	146.421	-56.4446	21.6755	122.971	-34.2578	-0.06807	
145	1.20833	93.4559	-19.9251	22.0869	62.3913	-22.2205	5.15209	37.3152	-26.618	-9.42045	23.0717	-45.0768	-21.7414	68.5245	-50.7931	-45.576	39.1789	-56.6997	-49.0666	14.406	-58.5889	-28.7337	71.1494	-69.986	-41.46	37.1903	-75.2271	-31.6737	33.4086	-68.0422	6.86466	72.613	-86.2076	-29.6798	45.4125	-88.5519	-11.806	54.2675	-73.7328	17.7226	81.9655	-101.173	-15.7366	55.9208	-98.1995	-4.43879	60.9678	-81.6704	21.7271	125.528	-73.2456	-3.89193	139.771	-64.2104	22.1045	124.464	-38.5066	2.18092	
146	1.21667	99.1225	-13.909	18.9697	71.2405	-9.26367	7.9885	43.5924	-11.9228	-9.97087	27.0269	-28.349	-14.4867	64.334	-38.0762	-44.1014	37.0447	-36.2415	-44.9524	10.8645	-35.8338	-22.0708	62.1771	-59.7449	-36.1461	28.7629	-55.658	-25.4363	29.4439	-44.8083	14.317	61.9865	-76.3428	-21.8668	34.7654	-69.4839	-5.743	45.0608	-55.5158	21.4107	62.3115	-92.1265	-9.51587	41.1559	-78.8954	3.3633	54.3758	-61.0708	23.6097	115.514	-72.3398	-3.72277	130.43	-69.8788	25.3315	123.683	-39.7079	6.04734	
147	1.225	108.028	-7.92847	19.2917	81.0023	1.2844	6.3918	55.0016	0.990567	-9.97245	35.7733	-15.2432	-14.3657	69.0768	-32.7474	-39.7217	38.3113	-23.6916	-42.9137	16.697	-12.1495	-20.9341	57.347	-51.2699	-34.8159	27.6031	-34.7385	-23.321	34.0529	-21.8601	13.7868	56.0592	-62.9041	-20.1174	30.9445	-52.2488	-6.23502	44.5969	-38.3154	22.165	58.6681	-77.4213	-5.47601	35.6445	-64.4959	4.54645	48.705	-49.7129	27.9229	109.868	-71.6139	3.35229	124.25	-69.1328	27.2478	124.596	-42.4503	8.57936	
148	1.23333	116.211	-7.62878	19.2051	91.0641	8.57216	0.90815	65.0996	11.1235	-17.4972	43.3373	-1.56716	-19.4191	73.2602	-24.0472	-43.4787	43.0798	-10.5449	-43.7711	27.0866	7.66101	-24.0448	60.5005	-39.1332	-36.7073	33.8143	-23.0097	-28.9098	41.8371	-11.0937	10.9544	54.301	-50.9155	-22.6138	31.4174	-37.1947	-8.72723	48.9396	-23.7089	17.4536	51.6503	-66.7978	-7.95104	33.4672	-48.4941	5.01236	55.1594	-38.4719	25.1098	103.091	-69.892	4.54506	121.983	-68.8658	30.5483	126.96	-44.538	8.073	
